<?xml version="1.0" encoding="UTF-8"?>
<svg width="263px" height="78px" viewBox="0 0 263 78" version="1.1" xmlns="http://www.w3.org/2000/svg" xmlns:xlink="http://www.w3.org/1999/xlink">
    <!-- Generator: sketchtool 54.1 (76490) - https://sketchapp.com -->
    <title>C67275AF-9267-4478-9C54-DFA63103A337</title>
    <desc>Created with sketchtool.</desc>
    <g id="Page-1" stroke="none" stroke-width="1" fill="none" fill-rule="evenodd">
        <g id="-03-Home-main-" transform="translate(-175.000000, -34.000000)">
            <g id="logo-streetcorner" transform="translate(175.000000, 34.000000)">
                <path d="M34.0000505,3.838219 L3.59357441,21.4190793 L3.59357441,56.5809797 L34.0000505,74.16166 L64.4064188,56.5809797 L64.4064188,21.4190793 L34.0000505,3.838219 Z M35.0242212,0.274827328 C34.3904572,-0.0916084496 33.6096439,-0.0916095293 32.9758799,0.274826608 L1.02417106,18.7491378 C0.390410683,19.1155714 0,19.7927647 0,20.5256319 L0,57.4742111 C0,58.2072943 0.390410683,58.8842356 1.02416747,59.2505973 L32.9758799,77.7252288 C33.6096439,78.0915904 34.3904572,78.0915904 35.0242212,77.7252288 L66.9758294,59.2505973 C67.6097371,58.8842356 68,58.2072943 68,57.4742111 L68,20.5256319 C68,19.7927647 67.6097371,19.1155714 66.9758294,18.7491378 L35.0242212,0.274827328 Z" id="Shape" fill="#F4B73D"></path>
                <polygon id="Path" fill="#F4B73D" fill-rule="nonzero" points="8 44.9555475 8 60.8426926 22 71 22 39"></polygon>
                <polygon id="Path" fill="#F4B73D" fill-rule="nonzero" points="21.891403 37.3860916 16 39.9468595 16 35.4573863 46 24 46 68.9186219 37.1299374 75 37.1299374 43.9766283"></polygon>
                <polygon id="Path" fill="#F4B73D" fill-rule="nonzero" points="24 42 29 44.0792114 29 49 24 46.9070934"></polygon>
                <polygon id="Path" fill="#F4B73D" fill-rule="nonzero" points="24 49 29 51.0792114 29 56 24 53.9070934"></polygon>
                <polygon id="Path" fill="#F4B73D" fill-rule="nonzero" points="29 60 34 62.0792114 34 67 29 64.9070934"></polygon>
                <polygon id="Path" fill="#F4B73D" fill-rule="nonzero" points="56 39 61 41.0792114 61 46 56 43.9067422"></polygon>
                <polygon id="Path" fill="#F4B73D" fill-rule="nonzero" points="48 44 53 46.0792114 53 51 48 48.9067422"></polygon>
                <polygon id="Path" fill="#F4B73D" fill-rule="nonzero" points="48 51 53 53.0792114 53 58 48 55.9070934"></polygon>
                <polygon id="Path" fill="#F4B73D" fill-rule="nonzero" points="48 29 53 31.079218 53 36 48 33.9070163"></polygon>
                <path d="M83.8762887,38 C82.7353952,38 81.628866,37.837937 80.556701,37.513811 C79.4982818,37.1749521 78.6460481,36.7403286 78,36.2099775 L79.1340206,33.5138387 C79.7525773,34.0000276 80.4879725,34.3904521 81.3402062,34.6851121 C82.1924399,34.9797721 83.0446735,35.127102 83.8969072,35.127102 C84.8453608,35.127102 85.5463918,34.9797721 86,34.6851121 C86.4536082,34.3757191 86.6804124,33.9705616 86.6804124,33.4696397 C86.6804124,33.1013147 86.5429553,32.7992882 86.2680412,32.5635602 C86.0068729,32.3130992 85.6632302,32.1142038 85.2371134,31.9668738 C84.8247423,31.8195438 84.2611684,31.6574808 83.5463918,31.4806848 C82.4467354,31.2007578 81.5463918,30.9208308 80.8453608,30.6409039 C80.1443299,30.3609769 79.5395189,29.9116204 79.0309278,29.2928345 C78.5360825,28.6740485 78.2886598,27.8490006 78.2886598,26.8176906 C78.2886598,25.9189777 78.5154639,25.1086628 78.9690722,24.3867458 C79.4226804,23.6500959 80.1030928,23.0681424 81.0103093,22.6408855 C81.9312715,22.2136285 83.0515464,22 84.371134,22 C85.2920962,22 86.1924399,22.117864 87.0721649,22.353592 C87.95189,22.58932 88.7216495,22.9281789 89.3814433,23.3701689 L88.3505155,26.0884072 C87.0171821,25.2780923 85.6838488,24.8729348 84.3505155,24.8729348 C83.4158076,24.8729348 82.7216495,25.0349978 82.2680412,25.3591238 C81.8281787,25.6832497 81.6082474,26.1105067 81.6082474,26.6408947 C81.6082474,27.1712826 81.862543,27.5690736 82.371134,27.8342676 C82.8934708,28.0847286 83.6838488,28.3351895 84.742268,28.5856505 C85.8419244,28.8655775 86.742268,29.1455045 87.443299,29.4254315 C88.1443299,29.7053584 88.742268,30.1473484 89.2371134,30.7514014 C89.7457045,31.3554543 90,32.1731358 90,33.2044457 C90,34.0884256 89.766323,34.8987406 89.2989691,35.6353905 C88.8453608,36.3573075 88.1580756,36.9318576 87.2371134,37.3591145 C86.3161512,37.7863715 85.1958763,38 83.8762887,38 Z" id="Path" fill="#FFFFFF" fill-rule="nonzero"></path>
                <polygon id="Path" fill="#FFFFFF" fill-rule="nonzero" points="95.7737705 24.8285782 91 24.8285782 91 22 104 22 104 24.8285782 99.2262295 24.8285782 99.2262295 37 95.7737705 37"></polygon>
                <path d="M115.351613,37 L112.520968,32.8214543 L112.353226,32.8214543 L109.396774,32.8214543 L109.396774,37 L106,37 L106,22 L112.353226,22 C113.653226,22 114.778495,22.2214291 115.729032,22.6642873 C116.693548,23.1071455 117.434409,23.7357184 117.951613,24.5500061 C118.468817,25.3642937 118.727419,26.3285817 118.727419,27.4428701 C118.727419,28.5571585 118.461828,29.5214465 117.930645,30.3357341 C117.413441,31.135736 116.672581,31.7500232 115.708065,32.1785957 L119,37 L115.351613,37 Z M115.28871,27.4428701 C115.28871,26.600011 115.023118,25.9571523 114.491935,25.5142941 C113.960753,25.0571501 113.184946,24.8285782 112.164516,24.8285782 L109.396774,24.8285782 L109.396774,30.057162 L112.164516,30.057162 C113.184946,30.057162 113.960753,29.8285901 114.491935,29.3714461 C115.023118,28.9143022 115.28871,28.2714435 115.28871,27.4428701 Z" id="Shape" fill="#FFFFFF" fill-rule="nonzero"></path>
                <polygon id="Path" fill="#FFFFFF" fill-rule="nonzero" points="133 34.2143148 133 37 121 37 121 22 132.712177 22 132.712177 24.7857209 124.564576 24.7857209 124.564576 28.0428715 131.760148 28.0428715 131.760148 30.742878 124.564576 30.742878 124.564576 34.2143148"></polygon>
                <polygon id="Path" fill="#FFFFFF" fill-rule="nonzero" points="147 34.2143148 147 37 135 37 135 22 146.712177 22 146.712177 24.7857209 138.564576 24.7857209 138.564576 28.0428715 145.760148 28.0428715 145.760148 30.742878 138.564576 30.742878 138.564576 34.2143148"></polygon>
                <polygon id="Path" fill="#FFFFFF" fill-rule="nonzero" points="152.77377 24.8285782 148 24.8285782 148 22 161 22 161 24.8285782 156.22623 24.8285782 156.22623 37 152.77377 37"></polygon>
                <path d="M175.943114,38 C174.448104,38 173.092814,37.661141 171.877246,36.9834231 C170.675649,36.291009 169.725549,35.3407305 169.026946,34.1326246 C168.342315,32.9097857 168,31.5322503 168,30.0000184 C168,28.4677865 168.342315,27.0976176 169.026946,25.8895117 C169.725549,24.6666728 170.675649,23.7163944 171.877246,23.0386764 C173.092814,22.3462255 174.45509,22 175.964072,22 C177.235529,22 178.381238,22.235728 179.401198,22.7071839 C180.43513,23.1786399 181.301397,23.8563579 182,24.7403378 L179.820359,26.8618896 C178.828343,25.6537837 177.598802,25.0497308 176.131737,25.0497308 C175.223553,25.0497308 174.413174,25.2633593 173.700599,25.6906162 C172.988024,26.1031402 172.429142,26.6850937 172.023952,27.4364766 C171.632735,28.1878595 171.437126,29.0423735 171.437126,30.0000184 C171.437126,30.9576633 171.632735,31.8121773 172.023952,32.5635602 C172.429142,33.3149432 172.988024,33.9042631 173.700599,34.3315201 C174.413174,34.7440441 175.223553,34.9503061 176.131737,34.9503061 C177.598802,34.9503061 178.828343,34.3388866 179.820359,33.1160477 L182,35.2375995 C181.301397,36.1363125 180.43513,36.8213601 179.401198,37.2928161 C178.367265,37.764272 177.214571,38 175.943114,38 Z" id="Path" fill="#FFFFFF" fill-rule="nonzero"></path>
                <path d="M191.5,38 C189.887293,38 188.429939,37.6537745 187.127937,36.9613236 C185.840731,36.2689095 184.827241,35.318631 184.087467,34.1105251 C183.362489,32.8876862 183,31.5175173 183,30.0000184 C183,28.4825195 183.362489,27.1197171 184.087467,25.9116112 C184.827241,24.6887723 185.840731,23.7311274 187.127937,23.0386764 C188.429939,22.3462255 189.887293,22 191.5,22 C193.112707,22 194.562663,22.3462255 195.849869,23.0386764 C197.137076,23.7311274 198.150566,24.6887723 198.890339,25.9116112 C199.630113,27.1197171 200,28.4825195 200,30.0000184 C200,31.5175173 199.630113,32.8876862 198.890339,34.1105251 C198.150566,35.318631 197.137076,36.2689095 195.849869,36.9613236 C194.562663,37.6537745 193.112707,38 191.5,38 Z M191.5,34.9503061 C192.417319,34.9503061 193.245866,34.7440441 193.98564,34.3315201 C194.725413,33.9042631 195.302437,33.3149432 195.71671,32.5635602 C196.145779,31.8121773 196.360313,30.9576633 196.360313,30.0000184 C196.360313,29.0423735 196.145779,28.1878595 195.71671,27.4364766 C195.302437,26.6850937 194.725413,26.1031402 193.98564,25.6906162 C193.245866,25.2633593 192.417319,25.0497308 191.5,25.0497308 C190.582681,25.0497308 189.754134,25.2633593 189.01436,25.6906162 C188.274587,26.1031402 187.690165,26.6850937 187.261097,27.4364766 C186.846823,28.1878595 186.639687,29.0423735 186.639687,30.0000184 C186.639687,30.9576633 186.846823,31.8121773 187.261097,32.5635602 C187.690165,33.3149432 188.274587,33.9042631 189.01436,34.3315201 C189.754134,34.7440441 190.582681,34.9503061 191.5,34.9503061 Z" id="Shape" fill="#FFFFFF" fill-rule="nonzero"></path>
                <path d="M211.351613,37 L208.520968,32.8214543 L208.353226,32.8214543 L205.396774,32.8214543 L205.396774,37 L202,37 L202,22 L208.353226,22 C209.653226,22 210.778495,22.2214291 211.729032,22.6642873 C212.693548,23.1071455 213.434409,23.7357184 213.951613,24.5500061 C214.468817,25.3642937 214.727419,26.3285817 214.727419,27.4428701 C214.727419,28.5571585 214.461828,29.5214465 213.930645,30.3357341 C213.413441,31.135736 212.672581,31.7500232 211.708065,32.1785957 L215,37 L211.351613,37 Z M211.28871,27.4428701 C211.28871,26.600011 211.023118,25.9571523 210.491935,25.5142941 C209.960753,25.0571501 209.184946,24.8285782 208.164516,24.8285782 L205.396774,24.8285782 L205.396774,30.057162 L208.164516,30.057162 C209.184946,30.057162 209.960753,29.8285901 210.491935,29.3714461 C211.023118,28.9143022 211.28871,28.2714435 211.28871,27.4428701 Z" id="Shape" fill="#FFFFFF" fill-rule="nonzero"></path>
                <polygon id="Path" fill="#FFFFFF" fill-rule="nonzero" points="232 22 232 37 229.099688 37 221.489097 27.8928712 221.489097 37 218 37 218 22 220.922118 22 228.510903 31.1071645 228.510903 22"></polygon>
                <polygon id="Path" fill="#FFFFFF" fill-rule="nonzero" points="247 34.2143148 247 37 235 37 235 22 246.712177 22 246.712177 24.7857209 238.564576 24.7857209 238.564576 28.0428715 245.760148 28.0428715 245.760148 30.742878 238.564576 30.742878 238.564576 34.2143148"></polygon>
                <path d="M259.351613,37 L256.520968,32.8214543 L256.353226,32.8214543 L253.396774,32.8214543 L253.396774,37 L250,37 L250,22 L256.353226,22 C257.653226,22 258.778495,22.2214291 259.729032,22.6642873 C260.693548,23.1071455 261.434409,23.7357184 261.951613,24.5500061 C262.468817,25.3642937 262.727419,26.3285817 262.727419,27.4428701 C262.727419,28.5571585 262.461828,29.5214465 261.930645,30.3357341 C261.413441,31.135736 260.672581,31.7500232 259.708065,32.1785957 L263,37 L259.351613,37 Z M259.28871,27.4428701 C259.28871,26.600011 259.023118,25.9571523 258.491935,25.5142941 C257.960753,25.0571501 257.184946,24.8285782 256.164516,24.8285782 L253.396774,24.8285782 L253.396774,30.057162 L256.164516,30.057162 C257.184946,30.057162 257.960753,29.8285901 258.491935,29.3714461 C259.023118,28.9143022 259.28871,28.2714435 259.28871,27.4428701 Z" id="Shape" fill="#FFFFFF" fill-rule="nonzero"></path>
                <polygon id="Path" fill="#FFFFFF" fill-rule="nonzero" points="86 50 82.8313725 57 81.1581699 57 78 50 79.8300654 50 82.0575163 55 84.3163399 50"></polygon>
                <polygon id="Path" fill="#FFFFFF" fill-rule="nonzero" points="100 55.7 100 57 94 57 94 50 99.8560886 50 99.8560886 51.3 95.7822878 51.3 95.7822878 52.82 99.3800738 52.82 99.3800738 54.08 95.7822878 54.08 95.7822878 55.7"></polygon>
                <polygon id="Path" fill="#FFFFFF" fill-rule="nonzero" points="116 50 116 57 114.549844 57 110.744548 52.75 110.744548 57 109 57 109 50 110.461059 50 114.255452 54.25 114.255452 50"></polygon>
                <polygon id="Path" fill="#FFFFFF" fill-rule="nonzero" points="126.570492 51.32 124 51.32 124 50 131 50 131 51.32 128.429508 51.32 128.429508 57 126.570492 57"></polygon>
                <path d="M142.5,57 C141.395899,57 140.5347,56.7279963 139.916404,56.1839888 C139.305468,55.6399813 139,54.8632959 139,53.8539326 L139,50 L140.788644,50 L140.788644,53.7949438 C140.788644,55.0271536 141.362776,55.6432584 142.511041,55.6432584 C143.070452,55.6432584 143.497371,55.4957865 143.791798,55.2008427 C144.086225,54.8993446 144.233438,54.4307116 144.233438,53.7949438 L144.233438,50 L146,50 L146,53.8539326 C146,54.8632959 145.690852,55.6399813 145.072555,56.1839888 C144.461619,56.7279963 143.604101,57 142.5,57 Z" id="Path" fill="#FFFFFF" fill-rule="nonzero"></path>
                <path d="M160.035484,57 L158.51129,55.05 L158.420968,55.05 L156.829032,55.05 L156.829032,57 L155,57 L155,50 L158.420968,50 C159.120968,50 159.726882,50.1033333 160.23871,50.31 C160.758065,50.5166667 161.156989,50.81 161.435484,51.19 C161.713978,51.57 161.853226,52.02 161.853226,52.54 C161.853226,53.06 161.710215,53.51 161.424194,53.89 C161.145699,54.2633333 160.746774,54.55 160.227419,54.75 L162,57 L160.035484,57 Z M160.001613,52.54 C160.001613,52.1466667 159.858602,51.8466667 159.572581,51.64 C159.286559,51.4266667 158.868817,51.32 158.319355,51.32 L156.829032,51.32 L156.829032,53.76 L158.319355,53.76 C158.868817,53.76 159.286559,53.6533333 159.572581,53.44 C159.858602,53.2266667 160.001613,52.9266667 160.001613,52.54 Z" id="Shape" fill="#FFFFFF" fill-rule="nonzero"></path>
                <polygon id="Path" fill="#FFFFFF" fill-rule="nonzero" points="177 55.7 177 57 171 57 171 50 176.856089 50 176.856089 51.3 172.782288 51.3 172.782288 52.82 176.380074 52.82 176.380074 54.08 172.782288 54.08 172.782288 55.7"></polygon>
                <path d="M188.938144,57 C188.367698,57 187.814433,56.9189687 187.278351,56.7569061 C186.749141,56.587477 186.323024,56.3701657 186,56.1049724 L186.56701,54.7569061 C186.876289,55 187.243986,55.1952118 187.670103,55.3425414 C188.09622,55.4898711 188.522337,55.5635359 188.948454,55.5635359 C189.42268,55.5635359 189.773196,55.4898711 190,55.3425414 C190.226804,55.1878453 190.340206,54.985267 190.340206,54.7348066 C190.340206,54.5506446 190.271478,54.3996317 190.134021,54.281768 C190.003436,54.1565378 189.831615,54.0570902 189.618557,53.9834254 C189.412371,53.9097606 189.130584,53.8287293 188.773196,53.7403315 C188.223368,53.6003683 187.773196,53.4604052 187.42268,53.320442 C187.072165,53.1804788 186.769759,52.9558011 186.515464,52.6464088 C186.268041,52.3370166 186.14433,51.9244936 186.14433,51.4088398 C186.14433,50.9594843 186.257732,50.5543278 186.484536,50.1933702 C186.71134,49.825046 187.051546,49.53407 187.505155,49.320442 C187.965636,49.106814 188.525773,49 189.185567,49 C189.646048,49 190.09622,49.0589319 190.536082,49.1767956 C190.975945,49.2946593 191.360825,49.4640884 191.690722,49.6850829 L191.175258,51.0441989 C190.508591,50.6390424 189.841924,50.4364641 189.175258,50.4364641 C188.707904,50.4364641 188.360825,50.5174954 188.134021,50.679558 C187.914089,50.8416206 187.804124,51.0552486 187.804124,51.320442 C187.804124,51.5856354 187.931271,51.7845304 188.185567,51.9171271 C188.446735,52.0423573 188.841924,52.1675875 189.371134,52.2928177 C189.920962,52.4327808 190.371134,52.572744 190.721649,52.7127072 C191.072165,52.8526703 191.371134,53.0736648 191.618557,53.3756906 C191.872852,53.6777164 192,54.0865562 192,54.6022099 C192,55.0441989 191.883162,55.4493554 191.649485,55.8176796 C191.42268,56.1786372 191.079038,56.46593 190.618557,56.679558 C190.158076,56.893186 189.597938,57 188.938144,57 Z" id="Path" fill="#FFFFFF" fill-rule="nonzero"></path>
            </g>
        </g>
    </g>
</svg>